<?xml version="1.0" standalone="no"?>
<!DOCTYPE svg PUBLIC "-//W3C//DTD SVG 20010904//EN"
 "http://www.w3.org/TR/2001/REC-SVG-20010904/DTD/svg10.dtd">
<svg version="1.0" xmlns="http://www.w3.org/2000/svg"
 width="1290.000000pt" height="1290.000000pt" viewBox="0 0 1290.000000 1290.000000"
 preserveAspectRatio="xMidYMid meet">
<metadata>
Created by potrace 1.14, written by Peter Selinger 2001-2017
</metadata>
<g transform="translate(0.000000,1290.000000) scale(0.100000,-0.100000)"
fill="#000000" stroke="none">
<path d="M6125 12630 c-1291 -83 -2452 -518 -3450 -1294 -208 -161 -615 -521
-615 -542 0 -6 19 -15 42 -21 24 -6 177 -45 341 -88 260 -66 301 -74 315 -62
10 7 62 52 117 98 1252 1064 2930 1518 4555 1233 1162 -204 2210 -759 3045
-1613 1084 -1109 1658 -2651 1565 -4204 -76 -1252 -554 -2421 -1372 -3351 -62
-71 -118 -131 -123 -133 -7 -2 -16 32 -23 82 -26 176 -138 505 -257 753 l-65
134 -66 -83 c-256 -321 -542 -601 -859 -841 -119 -90 -335 -235 -423 -285 -35
-20 -66 -41 -68 -48 -3 -7 8 -66 25 -131 58 -232 96 -413 156 -747 4 -27 1
-30 -93 -73 -542 -255 -994 -391 -1637 -494 -263 -43 -835 -63 -1137 -41 -847
62 -1640 299 -2358 704 -447 252 -837 551 -1215 931 -315 316 -551 610 -768
956 -974 1552 -1135 3450 -435 5135 78 189 248 525 351 695 250 414 232 381
215 394 -19 14 -567 181 -572 175 -17 -19 -137 -214 -208 -339 -755 -1315
-997 -2866 -682 -4365 320 -1520 1219 -2878 2499 -3777 1657 -1162 3798 -1435
5705 -727 1255 466 2336 1343 3060 2484 865 1362 1161 3043 816 4630 -218
1004 -667 1907 -1345 2705 -146 173 -496 522 -676 676 -985 842 -2187 1344
-3490 1459 -212 18 -685 27 -870 15z"/>
<path d="M930 10673 c-177 -17 -441 -83 -556 -138 -78 -38 -134 -92 -134 -130
0 -26 42 -81 68 -89 10 -3 191 -38 402 -76 471 -87 506 -96 900 -225 173 -57
543 -178 822 -269 l508 -167 37 42 c21 23 39 44 41 48 1 4 -181 77 -405 163
-344 132 -408 160 -411 177 -3 20 1 21 80 21 163 0 466 -45 791 -117 l158 -34
108 94 c59 51 156 131 215 177 l106 84 -107 18 c-235 40 -522 104 -1084 242
-362 89 -711 149 -1024 176 -111 9 -434 11 -515 3z"/>
<path d="M6975 10304 c-201 -21 -372 -56 -765 -155 l-435 -110 -85 10 c-149
18 -406 40 -715 61 -501 33 -713 50 -862 66 l-142 16 -114 -81 c-159 -114
-375 -288 -366 -295 2 -1 108 -29 234 -61 296 -74 530 -140 783 -221 l203 -64
192 94 c449 221 855 328 1390 366 371 27 899 -56 1322 -208 302 -108 628 -285
924 -500 16 -11 24 -5 70 49 28 34 68 75 89 92 100 80 281 128 501 132 l135 3
68 67 c37 38 68 72 68 76 0 11 -183 108 -320 169 -528 237 -1147 425 -1580
480 -88 11 -524 21 -595 14z"/>
<path d="M6152 9714 c-388 -42 -744 -140 -1091 -301 l-83 -38 138 -59 c171
-72 365 -172 463 -240 173 -118 276 -260 276 -378 0 -32 0 -58 1 -58 0 0 23 7
50 15 82 24 261 53 409 66 330 29 749 -59 1109 -235 162 -79 345 -196 464
-297 72 -61 73 -61 94 -43 12 11 113 110 225 222 l203 204 0 66 c0 77 23 243
44 320 l14 53 -51 41 c-81 63 -292 201 -404 262 -571 314 -1271 465 -1861 400z"/>
<path d="M3200 9545 l-43 -44 47 -21 c26 -11 49 -20 51 -20 11 0 255 -108 551
-245 l336 -156 53 43 c30 24 54 46 55 50 1 19 -386 194 -700 316 -113 44 -228
89 -256 100 l-51 21 -43 -44z"/>
<path d="M9610 9475 c-18 -19 -32 -36 -29 -38 2 -2 24 -11 49 -21 54 -20 150
-77 205 -121 70 -55 71 -51 5 29 -61 74 -175 186 -190 186 -3 0 -21 -16 -40
-35z"/>
<path d="M4398 9002 c-26 -20 -47 -39 -48 -42 0 -3 44 -29 98 -59 119 -66 442
-283 531 -358 36 -30 97 -89 135 -132 l70 -78 60 39 c34 22 129 73 211 114 83
40 147 74 142 74 -33 1 -217 33 -279 49 -159 41 -232 76 -618 300 -124 72
-232 131 -240 130 -8 0 -36 -17 -62 -37z"/>
<path d="M10201 8593 c-1 -60 -27 -185 -57 -278 -44 -134 -185 -409 -298 -579
l-105 -158 45 -152 c75 -252 144 -648 144 -829 0 -32 3 -57 8 -57 7 0 160 263
201 348 77 154 171 435 208 619 22 110 25 429 5 543 -16 89 -117 493 -137 547
l-14 38 0 -42z"/>
<path d="M6303 8514 c-184 -20 -294 -42 -445 -91 -254 -81 -589 -251 -573
-291 3 -8 17 -56 31 -106 59 -210 141 -324 334 -466 97 -72 190 -158 190 -177
0 -5 7 -16 15 -27 13 -18 18 -17 104 28 197 102 406 148 571 127 164 -21 369
-101 508 -197 35 -24 65 -44 68 -44 3 0 164 158 357 352 l351 352 -55 48
c-281 252 -727 442 -1144 487 -173 19 -187 19 -312 5z"/>
<path d="M8276 8139 l-159 -160 19 -24 c10 -13 44 -54 75 -92 186 -226 340
-522 425 -816 36 -125 53 -138 89 -67 56 110 70 260 36 392 -11 41 -63 182
-116 314 -93 229 -175 466 -191 550 -3 21 -9 44 -13 51 -4 7 -67 -49 -165
-148z"/>
<path d="M7608 7468 l-347 -350 44 -63 c93 -130 186 -356 201 -487 4 -39 12
-62 22 -65 20 -8 299 31 449 63 150 31 153 32 153 51 0 34 66 135 124 191 59
57 148 112 181 112 22 0 20 11 -26 148 -52 157 -178 410 -264 532 -70 98 -172
220 -183 219 -4 0 -163 -158 -354 -351z"/>
<path d="M9425 7252 c-163 -160 -283 -264 -415 -361 -47 -35 -87 -65 -89 -67
-2 -2 14 -23 37 -48 78 -84 112 -180 112 -316 0 -153 -42 -252 -150 -353 -65
-62 -128 -97 -206 -117 -39 -9 -42 -13 -53 -58 -44 -182 -168 -479 -268 -645
-151 -251 -364 -486 -598 -659 -44 -33 -83 -63 -87 -67 -4 -4 80 -130 187
-281 107 -151 231 -337 276 -412 45 -76 85 -138 89 -138 4 0 51 33 106 73 190
140 365 297 497 446 130 147 124 135 88 177 -68 77 -101 175 -101 304 0 151
41 249 144 349 96 91 190 131 316 131 l65 0 17 93 c40 214 121 445 247 695 69
138 72 146 82 250 21 200 -2 522 -56 802 -20 103 -80 339 -88 346 -1 1 -70
-64 -152 -144z"/>
<path d="M6340 7304 c-89 -17 -347 -125 -363 -151 -3 -4 19 -64 49 -133 66
-155 84 -223 84 -318 0 -171 -49 -268 -250 -503 -82 -96 -150 -179 -150 -184
0 -6 12 -25 28 -43 l27 -33 144 186 c79 103 159 202 177 221 48 47 109 80 185
99 53 13 67 21 75 41 5 14 144 160 308 324 345 346 327 306 174 386 -145 74
-246 105 -363 109 -55 2 -111 1 -125 -1z"/>
<path d="M6863 6722 l-243 -239 231 -5 c127 -2 283 -2 346 0 l114 5 -6 41
c-17 112 -111 333 -172 404 l-28 34 -242 -240z"/>
<path d="M8035 6455 c-60 -14 -316 -48 -451 -60 l-71 -7 -6 -58 c-4 -32 -21
-102 -38 -157 -76 -237 -211 -432 -394 -570 -33 -25 -59 -50 -57 -55 2 -6 536
-788 558 -817 2 -2 45 28 96 67 354 266 612 631 746 1052 47 145 46 139 25
146 -105 33 -227 132 -277 224 -35 64 -56 140 -56 203 0 26 -3 47 -7 46 -5 -1
-35 -7 -68 -14z"/>
<path d="M7160 6373 c-248 -10 -450 -37 -510 -68 -70 -36 -83 -99 -35 -182 28
-49 124 -187 223 -321 l53 -72 42 29 c56 38 146 127 196 193 69 93 148 271
170 386 l8 42 -41 -2 c-22 -1 -70 -3 -106 -5z"/>
<path d="M5498 5758 c-139 -179 -229 -302 -380 -518 l-157 -225 31 -32 31 -32
71 97 c39 53 172 232 296 397 124 164 228 304 232 311 7 11 -39 83 -54 84 -3
0 -35 -37 -70 -82z"/>
<path d="M4768 4748 c-156 -223 -267 -402 -392 -633 -75 -139 -76 -140 -56
-159 11 -11 21 -18 24 -15 2 2 68 103 146 224 78 121 202 308 275 416 l133
197 -32 31 -33 32 -65 -93z"/>
<path d="M9641 4356 c-33 -35 -127 -82 -192 -96 -53 -12 -208 -9 -269 4 -22 5
-34 -5 -95 -80 -172 -210 -448 -455 -727 -645 -5 -3 16 -57 46 -120 77 -164
158 -373 241 -621 l72 -216 107 66 c436 274 883 682 1186 1086 l72 95 -43 63
c-105 154 -351 479 -368 486 -4 1 -17 -9 -30 -22z"/>
<path d="M4171 3712 c-48 -96 -101 -212 -97 -212 3 0 132 213 152 251 2 4 -2
12 -9 17 -10 9 -21 -4 -46 -56z"/>
</g>
</svg>
